<svg width="137" height="115" viewBox="0 0 137 115" fill="none" xmlns="http://www.w3.org/2000/svg">
<path d="M100.222 112.5V100.222C100.222 93.7097 97.6351 87.4639 93.0301 82.8588C88.425 78.2538 82.1792 75.6667 75.6667 75.6667H26.5556C20.043 75.6667 13.7972 78.2538 9.19216 82.8588C4.5871 87.4639 2 93.7097 2 100.222V112.5" stroke="#92929D" stroke-width="4" stroke-linecap="round" stroke-linejoin="round"/>
<path d="M51.1111 51.1111C64.6728 51.1111 75.6667 40.1172 75.6667 26.5556C75.6667 12.9939 64.6728 2 51.1111 2C37.5494 2 26.5555 12.9939 26.5555 26.5556C26.5555 40.1172 37.5494 51.1111 51.1111 51.1111Z" stroke="#A1A4AC" stroke-width="4" stroke-linecap="round" stroke-linejoin="round"/>
<path d="M104 51C113.389 51 121 43.3888 121 34C121 24.6112 113.389 17 104 17C94.6112 17 87 24.6112 87 34C87 43.3888 94.6112 51 104 51Z" stroke="#0ACC0A" stroke-width="4" stroke-linecap="round" stroke-linejoin="round"/>
<path d="M134.056 112.5V100.222C134.052 94.7815 132.241 89.4962 128.907 85.1962C125.574 80.8961 120.907 77.8249 115.639 76.4647" stroke="#0ACC0A" stroke-width="4" stroke-linecap="round" stroke-linejoin="round"/>
</svg>
