<svg width="25" height="24" viewBox="0 0 25 24" fill="none" xmlns="http://www.w3.org/2000/svg">
<g clip-path="url(#clip0_55_324)">
<path d="M16.5156 9C16.5156 10.1935 16.0411 11.3381 15.1964 12.182C14.3516 13.0259 13.206 13.5 12.0114 13.5C10.8167 13.5 9.67107 13.0259 8.82635 12.182C7.98164 11.3381 7.50708 10.1935 7.50708 9C7.50708 7.80653 7.98164 6.66193 8.82635 5.81802C9.67107 4.97411 10.8167 4.5 12.0114 4.5C13.206 4.5 14.3516 4.97411 15.1964 5.81802C16.0411 6.66193 16.5156 7.80653 16.5156 9Z" fill="#0ACC0A"/>
<path d="M3.00285 0C2.20645 0 1.44266 0.316071 0.879515 0.87868C0.316371 1.44129 0 2.20435 0 3L0 21C0 21.7956 0.316371 22.5587 0.879515 23.1213C1.44266 23.6839 2.20645 24 3.00285 24H21.02C21.8164 24 22.5802 23.6839 23.1433 23.1213C23.7064 22.5587 24.0228 21.7956 24.0228 21V3C24.0228 2.20435 23.7064 1.44129 23.1433 0.87868C22.5802 0.316071 21.8164 0 21.02 0L3.00285 0ZM21.02 1.5C21.4182 1.5 21.8001 1.65804 22.0816 1.93934C22.3632 2.22064 22.5214 2.60218 22.5214 3V21C22.5214 21.3978 22.3632 21.7794 22.0816 22.0607C21.8001 22.342 21.4182 22.5 21.02 22.5V21C21.02 19.5 19.5185 15 12.0114 15C4.50428 15 3.00285 19.5 3.00285 21V22.5C2.60465 22.5 2.22276 22.342 1.94118 22.0607C1.65961 21.7794 1.50143 21.3978 1.50143 21V3C1.50143 2.60218 1.65961 2.22064 1.94118 1.93934C2.22276 1.65804 2.60465 1.5 3.00285 1.5H21.02Z" fill="#0ACC0A"/>
</g>
<defs>
<clipPath id="clip0_55_324">
<rect width="24.0228" height="24" fill="white"/>
</clipPath>
</defs>
</svg>
