<svg width="28" height="28" viewBox="0 0 28 28" fill="none" xmlns="http://www.w3.org/2000/svg">
<path d="M12.7115 3.65161H3.94331C3.27889 3.65161 2.64168 3.915 2.17187 4.38384C1.70205 4.85269 1.43811 5.48857 1.43811 6.15161V23.6516C1.43811 24.3147 1.70205 24.9505 2.17187 25.4194C2.64168 25.8882 3.27889 26.1516 3.94331 26.1516H21.4797C22.1442 26.1516 22.7814 25.8882 23.2512 25.4194C23.721 24.9505 23.9849 24.3147 23.9849 23.6516V14.9016" stroke="#92929D" stroke-width="2" stroke-linecap="round" stroke-linejoin="round"/>
<path d="M22.106 1.77665C22.6043 1.27937 23.2802 1 23.9849 1C24.6896 1 25.3655 1.27937 25.8638 1.77665C26.3621 2.27393 26.6421 2.94839 26.6421 3.65165C26.6421 4.35491 26.3621 5.02937 25.8638 5.52665L13.9641 17.4017L8.95367 18.6517L10.2063 13.6517L22.106 1.77665Z" stroke="#92929D" stroke-width="2" stroke-linecap="round" stroke-linejoin="round"/>
</svg>
