<svg width="77" height="30" viewBox="0 0 77 30" fill="none" xmlns="http://www.w3.org/2000/svg">
<g clip-path="url(#clip0_55_197)">
<path d="M0.000610352 8.04432C0.0447617 7.94057 0.106663 7.86132 0.130296 7.77251C0.347452 6.95654 0.750424 6.23334 1.30338 5.58958C1.58836 5.25781 1.89067 4.93837 2.20388 4.63127C2.87726 3.97102 3.65387 3.43985 4.48421 2.98201C5.32975 2.5158 6.20663 2.10856 7.14486 1.85562C7.80408 1.67791 8.47686 1.52171 9.15439 1.4404C9.86393 1.35524 10.5862 1.36653 11.3033 1.34626C11.461 1.3418 11.6201 1.382 11.7925 1.40337C10.2531 8.36094 8.71309 15.3208 7.16837 22.3022C7.45305 22.3946 7.75433 22.4652 8.0315 22.5873C8.89487 22.9675 9.75445 23.3567 10.6053 23.7625C11.3212 24.1039 12.0144 24.4904 12.733 24.8263C13.5595 25.2127 14.3867 25.6063 15.2816 25.8297C15.8523 25.9722 16.4314 26.0502 17.0258 26.0633C17.8674 26.0819 18.683 25.9825 19.4769 25.7137C19.5638 25.6843 19.6496 25.6516 19.7919 25.6002C19.7508 25.9179 19.7313 26.1961 19.6765 26.4676C19.5219 27.2321 19.3238 27.9846 18.9288 28.6736C18.5525 29.33 18.0791 29.8851 17.3125 30.1376C17.2944 30.1435 17.2827 30.168 17.2807 30.1972C16.7765 30.2105 16.2596 30.2105 15.7312 30.1949C15.6829 30.1611 15.6478 30.1383 15.6091 30.1256C15.2476 30.0064 14.8597 29.9352 14.5291 29.7614C13.8624 29.4108 13.2078 29.0313 12.5835 28.6143C11.8863 28.1486 11.2286 27.6275 10.5529 27.1315C9.88894 26.644 9.22197 26.1603 8.56003 25.6703C7.57395 24.9403 6.49988 24.3593 5.32925 23.9681C4.84257 23.8054 4.31858 23.7331 3.80519 23.6643C3.3905 23.6087 2.96625 23.6201 2.52955 23.601C2.5291 23.5923 2.51555 23.5418 2.52569 23.4964C2.72515 22.6012 2.92807 21.7067 3.12882 20.8118C3.32504 19.9371 3.52158 19.0624 3.71443 18.187C3.97207 17.0175 4.22287 15.8465 4.48297 14.6776C4.72324 13.5977 4.9775 12.5208 5.21542 11.4405C5.50467 10.1272 5.77974 8.81091 6.06748 7.49726C6.34166 6.24556 6.62443 4.99562 6.90271 3.74476C6.92089 3.66305 6.93292 3.58005 6.9521 3.47396C5.24837 4.17537 3.98531 5.2752 3.35097 6.91984C2.73959 8.50495 2.52728 10.1403 3.2503 11.8128C2.90168 11.7741 2.6063 11.7437 2.31157 11.7082C1.2781 11.5836 0.474739 11.1609 0.13317 10.1346C0.119225 10.0928 0.046141 10.0693 0.000610352 10.0373C0.000610352 9.37966 0.000610352 8.72203 0.000610352 8.04432Z" fill="#00EE00"/>
<path d="M77 1.32146C76.9564 1.4045 76.8921 1.46072 76.8723 1.52904C76.5527 2.63267 76.2386 3.73778 75.9236 4.84265C75.574 6.06875 75.2264 7.29536 74.8751 8.52097C74.5913 9.51098 74.3019 10.4995 74.0174 11.4893C73.5802 13.011 73.1463 14.5336 72.704 16.054C72.6864 16.1143 72.5967 16.1976 72.5398 16.1983C71.7366 16.207 70.9332 16.2034 70.1299 16.2018C70.1093 16.2017 70.0888 16.19 70.056 16.18C70.1202 15.7641 70.1838 15.349 70.2483 14.9341C70.3314 14.4002 70.4152 13.8664 70.4988 13.3326C70.5629 12.9235 70.6275 12.5144 70.6915 12.1053C70.7749 11.5714 70.8584 11.0376 70.9409 10.5036C71.0031 10.1011 71.0615 9.69802 71.1255 9.29581C71.2094 8.76941 71.2973 8.24361 71.3832 7.71752C71.485 7.09448 71.5902 6.47194 71.6871 5.8482C71.782 5.23751 71.865 4.62507 71.9596 4.01433C72.039 3.50146 72.1294 2.99018 72.2115 2.47768C72.2493 2.24182 72.2927 2.00551 72.3069 1.76791C72.3154 1.62531 72.3979 1.57689 72.5079 1.56137C72.8668 1.51069 73.2279 1.47536 73.5873 1.42742C74.1901 1.34702 74.7919 1.25968 75.3946 1.17888C75.6607 1.14321 75.9283 1.11817 76.1946 1.08412C76.248 1.0773 76.2987 1.05151 76.3437 1.01723C76.553 1 76.7693 1 77 1C77 1.09969 77 1.19998 77 1.32146Z" fill="#00EE00"/>
<path d="M34.2754 8.06708C34.9265 8.07357 35.5425 8.1495 36.1193 8.4115C36.6821 8.66713 37.059 9.10092 37.2759 9.64976C37.5794 10.4176 37.5885 11.2169 37.2675 11.9687C36.9228 12.776 36.1574 13.1348 35.24 12.7885C34.767 12.61 34.7983 12.6016 34.9237 12.1116C35.0363 11.6714 35.1138 11.2177 35.1488 10.7658C35.1663 10.5398 35.0805 10.2949 34.9952 10.0754C34.8328 9.65774 34.34 9.56002 33.9099 9.74043C33.3385 9.98014 32.9768 10.4359 32.6554 10.9151C31.972 11.9339 31.514 13.0535 31.1824 14.2206C31.0063 14.8403 30.8487 15.4658 30.7134 16.0949C30.6322 16.472 30.5928 16.8598 30.5658 17.2449C30.5327 17.7193 30.5006 18.1974 30.526 18.671C30.5529 19.1736 30.6225 19.6785 30.9954 20.0841C31.2595 20.3713 31.6028 20.5153 31.9762 20.5679C32.8844 20.6957 33.7722 20.6068 34.6327 20.2784C35.2004 20.0617 35.7011 19.7428 36.1607 19.3642C36.5451 19.0476 36.8983 18.6957 37.2802 18.3761C37.748 17.9846 38.0247 17.5179 38.1344 16.9138C38.3481 15.7361 38.6218 14.5684 38.8793 13.3984C39.1065 12.3656 39.3493 11.3359 39.5777 10.3033C39.7226 9.64826 39.8538 8.99033 39.9911 8.33368C41.4537 8.33368 42.8961 8.33368 44.3795 8.33368C44.2574 8.90636 44.1389 9.46259 44.0103 10.0657C44.2554 9.87126 44.4662 9.69664 44.6849 9.53188C45.3502 9.03079 46.0267 8.54297 46.8818 8.38985C47.6826 8.24643 48.4602 8.26351 49.071 8.88753C49.4166 9.24059 49.6042 9.66981 49.6767 10.1625C49.7562 10.7029 49.6705 11.1998 49.3992 11.6663C49.074 12.2254 48.5896 12.5822 47.9163 12.6459C47.6447 12.6716 47.3655 12.6734 47.0947 12.6436C46.6986 12.6 46.5081 12.317 46.3961 11.9801C46.288 11.655 46.1858 11.3276 46.0954 10.9976C46.0459 10.8171 45.922 10.7741 45.7559 10.7646C45.1842 10.7322 44.7148 10.9653 44.2815 11.2926C44.1269 11.4093 43.9849 11.5437 43.8219 11.6476C43.5479 11.8221 43.538 12.1065 43.4798 12.3682C43.2406 13.4416 43.0066 14.5162 42.7755 15.5914C42.4752 16.9888 42.1819 18.3877 41.8811 19.785C41.6644 20.7916 41.4373 21.7962 41.223 22.8033C41.1906 22.9555 41.0887 22.9284 40.991 22.9285C39.9812 22.9298 38.9714 22.9293 37.9616 22.9293C37.5792 22.9293 37.1967 22.9293 36.8028 22.9293C37.0225 21.9223 37.2383 20.9335 37.454 19.9448C37.4417 19.9356 37.4294 19.9265 37.417 19.9173C37.3462 19.9834 37.2693 20.0444 37.2056 20.1164C36.316 21.1218 35.252 21.9066 34.009 22.4553C33.2747 22.7794 32.5035 22.9995 31.6948 23.0538C31.1537 23.0902 30.6064 23.1301 30.0678 23.0915C28.9504 23.0116 27.9201 22.6833 27.116 21.8785C26.7602 21.5224 26.5035 21.098 26.3299 20.5884C26.2588 20.674 26.1976 20.7373 26.1485 20.8084C25.5279 21.7064 24.6445 22.2808 23.6472 22.7137C22.8724 23.0501 22.0542 23.1628 21.2153 23.0964C20.3209 23.0256 19.5947 22.6538 19.1196 21.8877C18.8547 21.4605 18.7334 20.9873 18.6381 20.4455C18.4834 20.653 18.3521 20.8281 18.2218 21.004C17.4894 21.993 16.5609 22.7189 15.3103 22.9865C14.3676 23.1882 13.428 23.2059 12.5456 22.7505C11.6768 22.3021 11.2106 21.5675 11.063 20.6436C10.9997 20.2473 10.9585 19.8398 10.9789 19.4408C11.0056 18.9162 11.076 18.39 11.1757 17.8731C11.3694 16.8693 11.5943 15.871 11.8107 14.8713C11.9884 14.0497 12.1736 13.2296 12.3534 12.4084C12.5421 11.5462 12.727 10.6832 12.916 9.82103C13.0239 9.32887 13.1365 8.83768 13.2495 8.33469C14.7006 8.33469 16.1578 8.33469 17.6312 8.33469C17.4838 9.01432 17.3382 9.69028 17.1903 10.3658C17.0046 11.2143 16.8162 12.0622 16.6308 12.9108C16.4483 13.7458 16.2682 14.5813 16.0868 15.4166C15.8846 16.3475 15.6869 17.2794 15.4778 18.2089C15.3772 18.6563 15.35 19.1031 15.4345 19.5533C15.5679 20.2639 16.0802 20.3078 16.6198 20.2054C17.1422 20.1063 17.5301 19.7804 17.8388 19.352C18.3301 18.6699 18.5976 17.9124 18.7573 17.1043C18.9066 16.3487 19.0887 15.5992 19.2546 14.8467C19.4567 13.9301 19.6579 13.0132 19.8578 12.0961C20.0129 11.3841 20.1639 10.6714 20.3192 9.95952C20.437 9.41992 20.5586 8.88111 20.6804 8.33305C22.1363 8.33305 23.5937 8.33305 25.0616 8.33305C24.8994 9.08542 24.7392 9.83172 24.5776 10.5778C24.3908 11.4403 24.2037 12.3029 24.0152 13.1651C23.8358 13.9864 23.6539 14.8073 23.4742 15.6286C23.2854 16.4907 23.0889 17.3514 22.9143 18.2162C22.8435 18.5666 22.7959 18.9254 22.7835 19.2819C22.7632 19.8656 23.1531 20.2063 23.7513 20.2376C24.3323 20.268 24.8574 20.1347 25.2436 19.7296C25.6408 19.3129 26.0283 18.8845 26.018 18.2283C26.001 17.148 26.2273 16.0917 26.5145 15.0502C26.7611 14.1559 27.0607 13.2799 27.5037 12.4555C27.9309 11.6603 28.4526 10.9315 29.0646 10.2562C29.4774 9.80051 29.926 9.39087 30.4464 9.06206C31.2071 8.58146 32.0356 8.25372 32.945 8.1554C33.3792 8.10847 33.8172 8.09546 34.2754 8.06708Z" fill="#00EE00"/>
<path d="M58.5995 19.7123C59.2003 19.1827 59.8028 18.6549 60.4003 18.1219C60.509 18.0249 60.5973 17.9064 60.7244 17.7926C60.9795 17.8009 60.9434 17.6431 60.9732 17.5031C61.0464 17.1586 61.1554 16.8213 61.2318 16.4773C61.323 16.0676 61.3888 15.6526 61.4777 15.2424C61.5493 14.9113 61.6465 14.5854 61.7184 14.2544C61.7915 13.9178 61.839 13.5761 61.9132 13.2398C62.001 12.8423 62.1113 12.4495 62.2007 12.0524C62.2808 11.6961 62.3407 11.3357 62.4188 10.979C62.5029 10.5947 62.604 10.2139 62.6865 9.82931C62.7776 9.40506 62.8589 8.97874 62.9349 8.55174C62.9423 8.51009 62.883 8.45731 62.8547 8.40969C62.9131 8.38114 62.9714 8.32815 63.03 8.32774C63.8182 8.32223 64.6065 8.32404 65.3948 8.32404C65.9981 8.32403 66.6015 8.32404 67.2208 8.32404C67.2001 8.46062 67.191 8.58279 67.162 8.70038C67.0572 9.12641 66.935 9.54871 66.8401 9.97672C66.7727 10.2809 66.7515 10.5945 66.686 10.8991C66.62 11.206 66.5118 11.5043 66.4455 11.8111C66.3664 12.1769 66.3232 12.55 66.2439 12.9157C66.1773 13.2224 66.0683 13.5203 66.0017 13.827C65.9356 14.1315 65.9095 14.4441 65.8461 14.7494C65.7977 14.9829 65.7072 15.2081 65.6561 15.4412C65.6042 15.6785 65.5897 15.9235 65.5366 16.1605C65.4814 16.4068 65.3881 16.6451 65.3329 16.8914C65.2798 17.1284 65.263 17.373 65.2139 17.6111C65.1633 17.8566 65.1039 18.1015 65.0283 18.3407C64.9438 18.6079 64.9741 18.8782 64.9694 19.1484C64.9673 19.2682 64.9348 19.3909 64.9531 19.5069C64.9858 19.7147 65.037 19.9237 65.2792 20.0521C65.4111 20.1577 65.523 20.251 65.652 20.3085C65.6986 20.3293 65.786 20.2641 65.8548 20.2381C66.0623 20.2362 66.2698 20.2343 66.503 20.247C66.5538 20.2847 66.585 20.3315 66.6033 20.3272C66.7801 20.2858 66.9548 20.2358 67.13 20.1882C67.1133 20.3253 67.1204 20.4703 67.0753 20.598C66.9622 20.9182 66.8337 21.234 66.6967 21.5454C66.4112 22.1945 65.8535 22.5529 65.224 22.8465C64.6263 23.1254 63.9957 23.1171 63.3626 23.0947C63.1572 23.0875 62.9543 23.0141 62.7242 22.9564C62.4229 22.8108 62.1476 22.6797 61.8724 22.5486C61.6842 22.3852 61.496 22.2218 61.3069 22.0333C61.3061 21.9806 61.3153 21.9493 61.3052 21.9259C61.1612 21.5937 61.0181 21.2611 60.8655 20.9326C60.839 20.8755 60.7695 20.8371 60.7199 20.79C60.7074 20.7708 60.6949 20.7517 60.6977 20.7152C60.8227 20.6216 60.7545 20.5969 60.6752 20.5754C60.6418 20.2694 60.6085 19.9634 60.5726 19.6336C60.5132 19.6704 60.4035 19.7044 60.3493 19.7772C59.6235 20.7522 58.6614 21.4719 57.6198 22.0873C56.8699 22.5303 56.041 22.8081 55.1723 22.9775C54.4242 23.1234 53.6704 23.1298 52.9197 23.0918C52.016 23.0461 51.1619 22.7869 50.4262 22.2624C49.6749 21.7267 49.2582 20.9707 49.0489 20.1016C48.8784 19.3936 48.8291 18.6722 48.8767 17.9511C48.9879 16.2662 49.3816 14.6388 50.0483 13.0794C50.427 12.1937 50.941 11.382 51.5788 10.6422C52.0816 10.0588 52.6089 9.50694 53.2705 9.0882C54.0646 8.58556 54.9228 8.24406 55.8719 8.15562C56.4023 8.10619 56.938 8.05736 57.4687 8.07653C58.1617 8.10156 58.836 8.25014 59.4061 8.67063C59.8833 9.02263 60.1748 9.49933 60.2771 10.0661C60.463 11.0965 60.3219 12.0924 59.8818 13.0491C59.6011 13.6591 59.2066 14.1898 58.7427 14.6824C58.1119 15.3523 57.366 15.867 56.5311 16.2583C55.7538 16.6227 54.9404 16.8902 54.0732 16.9787C53.8651 16.9999 53.6592 17.0419 53.4399 17.0763C53.3729 17.8722 53.2923 18.6716 53.5227 19.4545C53.7221 20.1321 54.127 20.4703 54.8676 20.5621C55.355 20.6225 55.8567 20.5745 56.3763 20.5896C56.4473 20.6232 56.4966 20.6626 56.5401 20.6572C56.6446 20.6445 56.7452 20.5944 56.8492 20.5881C57.5078 20.5479 58.0386 20.2208 58.5615 19.8783C58.5967 19.8553 58.5879 19.7691 58.5995 19.7123ZM56.2333 14.4929C56.8278 13.9326 57.3225 13.3051 57.6319 12.5518C57.9298 11.8264 58.0688 11.0819 57.9383 10.3018C57.8627 9.8501 57.4929 9.57362 57.0823 9.65885C56.7159 9.73492 56.4149 9.91959 56.1482 10.165C55.7051 10.5728 55.3933 11.0719 55.1069 11.5867C54.5202 12.6412 54.1163 13.7623 53.8291 14.9245C53.7749 15.1438 53.7353 15.3666 53.689 15.5877C53.706 15.6092 53.7229 15.6307 53.7399 15.6522C54.1242 15.5424 54.5154 15.4509 54.8911 15.3184C55.3872 15.1434 55.7984 14.8253 56.2333 14.4929Z" fill="#00EE00"/>
<path d="M71.8653 17.147C73.0624 17.5352 73.8073 18.3192 73.9761 19.5092C74.1457 20.7052 73.6726 21.8039 72.4714 22.4655C72.0097 22.7199 71.5137 22.846 70.9947 22.8371C70.2067 22.8236 69.495 22.5674 68.9307 22.0235C68.4533 21.5634 68.1534 21.0085 68.0591 20.3437C67.921 19.3705 68.2212 18.544 68.9129 17.8588C69.3848 17.3912 69.9798 17.1346 70.665 17.052C71.0747 17.0026 71.4583 17.0535 71.8653 17.147ZM71.1691 19.0335C71.241 19.1067 71.3308 19.1699 71.3812 19.255C71.5069 19.4672 71.7095 19.557 71.8999 19.4637C72.126 19.3529 72.2211 19.1309 72.0879 18.9177C71.9749 18.7367 71.8031 18.5906 71.6634 18.4243C71.6189 18.3712 71.5697 18.3045 71.5644 18.2408C71.5438 17.9936 71.4147 17.8133 71.2208 17.7904C71.0363 17.7686 70.8444 17.9244 70.7618 18.1385C70.7374 18.2016 70.6695 18.2702 70.6049 18.2942C70.2177 18.438 70.0139 18.7245 69.9743 19.1027C69.9322 19.5043 70.0988 19.8319 70.4671 20.0463C70.684 20.1726 70.9114 20.2849 71.1137 20.43C71.188 20.4832 71.2368 20.6145 71.2321 20.707C71.2298 20.7519 71.0798 20.817 70.9922 20.8248C70.8153 20.8404 70.6984 20.7444 70.6276 20.5829C70.5384 20.3796 70.2708 20.2524 70.1101 20.334C69.9116 20.4348 69.7818 20.6461 69.9098 20.8914C70.0356 21.1324 70.1979 21.324 70.4466 21.4525C70.5092 21.4849 70.5655 21.5671 70.5826 21.6362C70.63 21.8271 70.8284 22.0289 70.9907 22.0241C71.1528 22.0194 71.3371 21.8359 71.3868 21.6561C71.4054 21.5886 71.4578 21.5082 71.5186 21.4767C72.1728 21.1375 72.2299 20.2263 71.6128 19.8309C71.402 19.6958 71.1846 19.5684 70.9603 19.4559C70.7996 19.3752 70.7074 19.2649 70.779 19.1025C70.8474 18.947 70.9949 18.9609 71.1691 19.0335Z" fill="#00EE00"/>
<path d="M66.0254 6.78214C65.4344 6.81334 64.9046 6.70439 64.4471 6.35499C63.9522 5.97702 63.6026 5.51887 63.5045 4.89074C63.4065 4.2638 63.5023 3.68675 63.8623 3.15753C64.226 2.6229 64.7279 2.27775 65.3836 2.1568C66.2126 2.0039 66.9446 2.21041 67.5552 2.76232C68.0047 3.16866 68.256 3.68229 68.2892 4.2896C68.3203 4.85727 68.2076 5.38457 67.843 5.83937C67.3889 6.40593 66.8041 6.7516 66.0254 6.78214Z" fill="#00EE00"/>
<path d="M60.7692 26.6151C61.2137 26.8562 61.3845 27.2212 61.2973 27.7118C61.2356 28.0593 60.8976 28.3826 60.4476 28.4029C59.6807 28.4375 58.9109 28.4124 58.1285 28.4124C58.1285 27.2266 58.1285 26.0169 58.1285 24.771C58.1928 24.771 58.2624 24.771 58.332 24.771C58.8107 24.771 59.2899 24.758 59.768 24.7754C60.114 24.788 60.4478 24.8471 60.7614 25.0308C61.1301 25.2467 61.2455 25.9468 60.9332 26.3049C60.8526 26.3973 60.7811 26.4973 60.7082 26.5902C60.6853 26.5787 60.7194 26.5959 60.7692 26.6151ZM58.5573 27.9117C58.5617 27.9733 58.566 28.0349 58.5715 28.1118C59.0183 28.1118 59.451 28.1202 59.883 28.1079C60.0682 28.1026 60.2566 28.0704 60.4355 28.0222C60.7099 27.9482 60.8563 27.7347 60.8571 27.4537C60.8579 27.1597 60.7171 26.9136 60.4252 26.8787C59.8145 26.8056 59.1968 26.7869 58.5573 26.7442C58.5573 27.1618 58.5573 27.516 58.5573 27.9117ZM59.1107 26.4414C59.4236 26.427 59.7373 26.421 60.0493 26.396C60.3901 26.3687 60.6845 26.0861 60.676 25.7858C60.6686 25.5267 60.5044 25.2331 60.1252 25.2071C59.6121 25.1719 59.0945 25.1984 58.5717 25.1984C58.5717 25.5954 58.5717 26.0103 58.5717 26.4414C58.7462 26.4414 58.9065 26.4414 59.1107 26.4414Z" fill="#00EE00"/>
<path d="M72.1471 28.0176C71.8448 27.6817 71.549 27.3605 71.2636 27.0309C71.0434 26.7767 71.0185 26.7682 70.7782 27.0077C70.6256 27.1598 70.4767 27.3161 70.3378 27.4799C70.2971 27.5278 70.2818 27.6073 70.2801 27.6729C70.2736 27.9218 70.2775 28.171 70.2775 28.4373C70.1327 28.4373 69.9982 28.4373 69.8492 28.4373C69.8492 27.2234 69.8492 26.0086 69.8492 24.7824C69.9863 24.7824 70.1159 24.7824 70.2668 24.7824C70.2668 25.471 70.2668 26.1593 70.2668 26.914C70.3675 26.8308 70.4267 26.789 70.4772 26.7389C71.0527 26.1694 71.636 25.6069 72.1965 25.0238C72.4035 24.8085 72.6173 24.7114 72.9576 24.8028C72.4128 25.3609 71.88 25.9067 71.3395 26.4604C71.9103 27.1155 72.4761 27.7648 73.0465 28.4194C72.6109 28.521 72.4099 28.4301 72.1471 28.0176Z" fill="#00EE00"/>
<path d="M47.3979 25.4453C47.4914 25.253 47.5852 25.0778 47.6556 24.8942C47.7184 24.7305 47.8505 24.7802 47.9675 24.7708C48.0748 24.7621 48.1558 24.7753 48.2093 24.8918C48.6209 25.7883 49.0382 26.6825 49.4569 27.576C49.5912 27.8625 49.7353 28.1447 49.8756 28.4305C49.8423 28.4431 49.8297 28.4521 49.8173 28.452C49.3172 28.4484 49.4217 28.5196 49.2451 28.1102C48.9867 27.5109 48.9836 27.5122 48.3106 27.5122C47.8906 27.5122 47.4706 27.5152 47.0507 27.5101C46.943 27.5088 46.8765 27.5325 46.8349 27.6379C46.7704 27.8015 46.6897 27.9592 46.6143 28.1186C46.4456 28.4754 46.4452 28.4753 45.9976 28.4418C46.078 28.2595 46.1514 28.0816 46.2341 27.908C46.6044 27.1311 46.9776 26.3555 47.3488 25.579C47.3668 25.5412 47.3751 25.4989 47.3979 25.4453ZM47.7442 27.1267C48.0793 27.1267 48.4144 27.1267 48.7834 27.1267C48.5016 26.5189 48.2341 25.9419 47.9666 25.3649C47.9427 25.363 47.9188 25.361 47.895 25.3591C47.6268 25.9391 47.3586 26.5192 47.0777 27.1267C47.3179 27.1267 47.5091 27.1267 47.7442 27.1267Z" fill="#00EE00"/>
<path d="M63.9831 25.3388C64.4775 26.3773 64.962 27.4024 65.4446 28.4235C65.4185 28.4409 65.4136 28.4469 65.4082 28.4474C64.972 28.4826 64.9392 28.46 64.7551 27.9984C64.5613 27.5122 64.5613 27.5122 64.0356 27.5122C63.5643 27.5122 63.0928 27.5156 62.6215 27.5099C62.5018 27.5084 62.4387 27.5389 62.4013 27.6572C62.3529 27.8103 62.2751 27.9546 62.2116 28.1032C62.0568 28.4656 62.0572 28.4658 61.5645 28.4466C62.1464 27.2133 62.7205 25.9967 63.2905 24.7888C63.3197 24.7811 63.3337 24.7745 63.348 24.774C63.7512 24.7602 63.8072 24.8098 63.9831 25.3388ZM63.3736 25.5614C63.1385 26.0759 62.9034 26.5904 62.6651 27.1117C63.2431 27.1117 63.7906 27.1117 64.3549 27.1117C64.073 26.5041 63.7998 25.9152 63.513 25.2971C63.4564 25.3969 63.4188 25.4632 63.3736 25.5614Z" fill="#00EE00"/>
<path d="M55.9912 26.3986C56.1738 26.3986 56.3344 26.3986 56.5228 26.3986C56.5228 26.1133 56.5228 25.8448 56.5228 25.5763C56.5228 25.3144 56.5228 25.0525 56.5228 24.7811C56.6617 24.7811 56.7765 24.7811 56.9061 24.7811C56.9061 26.0006 56.9061 27.2158 56.9061 28.4428C56.7853 28.4428 56.6704 28.4428 56.5295 28.4428C56.5295 27.8993 56.5295 27.3544 56.5295 26.797C55.7408 26.797 54.9778 26.797 54.1884 26.797C54.1884 27.3375 54.1884 27.8821 54.1884 28.4404C54.0278 28.4404 53.8933 28.4404 53.7476 28.4404C53.7476 27.2221 53.7476 26.0122 53.7476 24.7866C53.8845 24.7866 54.0189 24.7866 54.1721 24.7866C54.1721 25.3153 54.1721 25.8405 54.1721 26.3986C54.783 26.3986 55.3761 26.3986 55.9912 26.3986Z" fill="#00EE00"/>
<path d="M52.7606 25.1222C52.7239 25.2286 52.6861 25.3185 52.6452 25.4158C52.4396 25.3408 52.2392 25.2644 52.0364 25.1946C51.6619 25.0657 51.2992 25.1008 50.9429 25.2671C50.7192 25.3714 50.6152 25.557 50.6173 25.7746C50.6192 25.9789 50.7267 26.1568 50.9497 26.226C51.3819 26.3601 51.8163 26.4878 52.2494 26.6197C52.6447 26.74 52.9059 26.9836 52.9364 27.3963C52.9671 27.8126 52.7873 28.1348 52.3966 28.3274C51.9165 28.5641 51.4108 28.5375 50.9063 28.4294C50.7257 28.3907 50.5474 28.3209 50.3827 28.2381C50.049 28.0703 50.0432 28.0241 50.253 27.6962C50.4175 27.7882 50.5771 27.8927 50.7494 27.9707C51.1545 28.154 51.5859 28.1717 52.007 28.0604C52.4146 27.9526 52.6124 27.5805 52.4424 27.2866C52.3091 27.0559 52.051 26.985 51.8065 26.914C51.4956 26.8239 51.1792 26.7506 50.8713 26.6519C50.1303 26.4145 50.011 25.7288 50.3819 25.1897C50.572 24.9136 50.8929 24.8091 51.2097 24.7804C51.6216 24.7429 52.0445 24.7363 52.4382 24.9035C52.5536 24.9525 52.6528 25.0373 52.7606 25.1222Z" fill="#00EE00"/>
<path d="M68.9162 28.081C68.1172 28.6382 67.2957 28.6463 66.475 28.1907C66.0575 27.9589 65.8068 27.5717 65.6973 27.118C65.5268 26.4109 65.6792 25.772 66.2221 25.2583C66.5582 24.9403 66.9806 24.7825 67.4596 24.7687C67.9266 24.7553 68.3758 24.7968 68.7684 25.0711C68.8625 25.1369 68.945 25.2182 69.044 25.3018C68.9398 25.3976 68.8452 25.4846 68.7505 25.5717C68.1209 24.9747 67.1084 25.0598 66.5733 25.5354C65.9331 26.1045 65.9389 27.0711 66.4788 27.6292C66.9652 28.132 67.8013 28.2641 68.4166 27.9219C68.448 27.9045 68.4825 27.8916 68.5114 27.871C68.7937 27.6702 68.7935 27.6699 69.046 27.9363C69.0079 27.9792 68.9676 28.0245 68.9162 28.081Z" fill="#00EE00"/>
<path d="M44.3652 24.771C44.832 24.7476 45.2571 24.8075 45.6291 25.0687C45.7229 25.1346 45.8082 25.2119 45.8947 25.2819C45.7931 25.3761 45.7005 25.4618 45.5925 25.5618C45.2173 25.2067 44.7234 25.0847 44.1928 25.1671C43.8393 25.2219 43.5063 25.388 43.2856 25.671C42.7545 26.3515 42.8217 27.143 43.3865 27.6866C43.9465 28.2256 44.9187 28.319 45.5914 27.6831C45.6802 27.783 45.7697 27.8837 45.8688 27.9953C45.611 28.2744 45.2344 28.4296 44.8227 28.4817C44.1781 28.5634 43.5648 28.4589 43.0817 28.0021C42.5234 27.4742 42.3855 26.8206 42.5699 26.0983C42.7751 25.2944 43.5178 24.7829 44.3652 24.771Z" fill="#00EE00"/>
<path d="M62.851 8.42667C62.883 8.45729 62.9423 8.51008 62.9349 8.55173C62.8588 8.97873 62.7775 9.40504 62.6865 9.82929C62.604 10.2139 62.5029 10.5947 62.4187 10.9789C62.3406 11.3356 62.2808 11.6961 62.2006 12.0523C62.1113 12.4495 62.0009 12.8423 61.9132 13.2398C61.839 13.576 61.7914 13.9178 61.7183 14.2543C61.6464 14.5854 61.5493 14.9113 61.4776 15.2423C61.3888 15.6526 61.3229 16.0676 61.2318 16.4773C61.1553 16.8213 61.0464 17.1586 60.9731 17.503C60.9434 17.643 60.9794 17.8009 60.7366 17.7876C60.8093 17.504 60.9196 17.2245 60.9854 16.9356C61.1923 16.0276 61.3823 15.116 61.5793 14.2059C61.7807 13.2753 61.9808 12.3445 62.1848 11.4145C62.3514 10.6556 62.5229 9.89767 62.6922 9.13929C62.7439 8.90742 62.7956 8.67554 62.851 8.42667Z" fill="#00EE00"/>
<path d="M58.5839 19.7147C58.5879 19.7691 58.5967 19.8553 58.5615 19.8783C58.0386 20.2208 57.5078 20.5479 56.8493 20.5881C56.7452 20.5944 56.6446 20.6445 56.5402 20.6572C56.4966 20.6626 56.4473 20.6232 56.3954 20.5925C56.7224 20.4945 57.0694 20.4421 57.3832 20.3136C57.792 20.1463 58.1744 19.9187 58.5839 19.7147Z" fill="#00EE00"/>
<path d="M60.7217 20.8051C60.7695 20.8371 60.8389 20.8755 60.8654 20.9326C61.0181 21.2611 61.1612 21.5937 61.3051 21.9259C61.3153 21.9493 61.3061 21.9806 61.3003 22.0202C60.9799 21.6831 60.8014 21.2739 60.7217 20.8051Z" fill="#00EE00"/>
<path d="M67.1329 20.1732C66.9548 20.2357 66.7802 20.2858 66.6034 20.3272C66.585 20.3315 66.5538 20.2846 66.5234 20.2498C66.6965 20.192 66.874 20.1433 67.0536 20.103C67.0754 20.0981 67.1081 20.1387 67.1329 20.1732Z" fill="#00EE00"/>
<path d="M61.879 22.5619C62.1476 22.6797 62.4229 22.8108 62.7064 22.9534C62.4383 22.835 62.162 22.7051 61.879 22.5619Z" fill="#0AC66E"/>
<path d="M65.8374 20.2352C65.786 20.2641 65.6985 20.3293 65.652 20.3085C65.523 20.251 65.4111 20.1577 65.2858 20.0651C65.4594 20.1119 65.6397 20.1721 65.8374 20.2352Z" fill="#00EE00"/>
<path d="M60.6771 20.5886C60.7544 20.5969 60.8227 20.6216 60.7002 20.7029C60.6848 20.6726 60.682 20.6372 60.6771 20.5886Z" fill="#00EE00"/>
</g>
<defs>
<clipPath id="clip0_55_197">
<rect width="77" height="30" fill="white" transform="translate(0.000610352)"/>
</clipPath>
</defs>
</svg>
