<svg width="22" height="21" viewBox="0 0 22 21" fill="none" xmlns="http://www.w3.org/2000/svg">
<path d="M14.3068 2.34726C11.1742 -0.782421 6.07552 -0.782421 2.94286 2.34726C-0.189123 5.47762 -0.189123 10.5707 2.94286 13.7011C5.73257 16.4875 10.0774 16.786 13.208 14.6102C13.2739 14.9216 13.4247 15.2188 13.6671 15.461L18.2293 20.0188C18.8941 20.6817 19.9684 20.6817 20.6298 20.0188C21.294 19.3553 21.294 18.282 20.6298 17.6205L16.0677 13.0613C15.8266 12.8212 15.5285 12.6699 15.2168 12.604C17.396 9.47572 17.0972 5.13569 14.3068 2.34726ZM12.8665 12.2621C10.5277 14.5987 6.72133 14.5987 4.38321 12.2621C2.04577 9.92553 2.04577 6.12351 4.38321 3.78693C6.72133 1.45103 10.5277 1.45103 12.8665 3.78693C15.2052 6.12351 15.2052 9.92553 12.8665 12.2621Z" fill="#9E9D9D"/>
</svg>
